# xmcd CD database file
#
# Track frame offsets:
#	150
#	48426
#	89747
#	125625
#	156288
#
# Disc length: 2662 seconds
#
# Revision: 0
# Processed by: cddbd v1.5.2PL0 Copyright (c) Steve Scherf et al.
# Submitted via: CDex 1.70beta3
#
DISCID=420a6405
DTITLE=John Coltrane - Blue Note Best Jazz Collection 05
DYEAR=2012
DGENRE=Jazz
TTITLE0=The way you look tonight
TTITLE1=Speak Low
TTITLE2=I'm Old Fashioned
TTITLE3=Moment's Notice
TTITLE4=Blue Train
EXTD=YEAR: 2012
EXTT0=
EXTT1=
EXTT2=
EXTT3=
EXTT4=
PLAYORDER=
